G04 #@! TF.FileFunction,Legend,Top*
%FSLAX46Y46*%
G04 Gerber Fmt 4.6, Leading zero omitted, Abs format (unit mm)*
G04 Created by KiCad (PCBNEW 4.0.2-stable) date 6/16/2017 10:15:05 AM*
%MOMM*%
G01*
G04 APERTURE LIST*
%ADD10C,0.100000*%
%ADD11C,0.120000*%
%ADD12C,0.150000*%
G04 APERTURE END LIST*
D10*
D11*
X143078608Y-112942335D02*
G75*
G03X143235516Y-109710000I-1078608J1672335D01*
G01*
X140921392Y-112942335D02*
G75*
G02X140764484Y-109710000I1078608J1672335D01*
G01*
X143079837Y-112311130D02*
G75*
G03X143080000Y-110229039I-1079837J1041130D01*
G01*
X140920163Y-112311130D02*
G75*
G02X140920000Y-110229039I1079837J1041130D01*
G01*
X143236000Y-109710000D02*
X143080000Y-109710000D01*
X140920000Y-109710000D02*
X140764000Y-109710000D01*
X151340000Y-108670000D02*
X151340000Y-111270000D01*
X151340000Y-111270000D02*
X153960000Y-111270000D01*
X153960000Y-111270000D02*
X153960000Y-108670000D01*
X153960000Y-108670000D02*
X151340000Y-108670000D01*
X153960000Y-109620000D02*
X153960000Y-110380000D01*
X153960000Y-110380000D02*
X159960000Y-110380000D01*
X159960000Y-110380000D02*
X159960000Y-109620000D01*
X159960000Y-109620000D02*
X153960000Y-109620000D01*
X150910000Y-109620000D02*
X151340000Y-109620000D01*
X150910000Y-110380000D02*
X151340000Y-110380000D01*
X153960000Y-109740000D02*
X159960000Y-109740000D01*
X153960000Y-109860000D02*
X159960000Y-109860000D01*
X153960000Y-109980000D02*
X159960000Y-109980000D01*
X153960000Y-110100000D02*
X159960000Y-110100000D01*
X153960000Y-110220000D02*
X159960000Y-110220000D01*
X153960000Y-110340000D02*
X159960000Y-110340000D01*
X151340000Y-111270000D02*
X151340000Y-113870000D01*
X151340000Y-113870000D02*
X153960000Y-113870000D01*
X153960000Y-113870000D02*
X153960000Y-111270000D01*
X153960000Y-111270000D02*
X151340000Y-111270000D01*
X153960000Y-112160000D02*
X153960000Y-112920000D01*
X153960000Y-112920000D02*
X159960000Y-112920000D01*
X159960000Y-112920000D02*
X159960000Y-112160000D01*
X159960000Y-112160000D02*
X153960000Y-112160000D01*
X150910000Y-112160000D02*
X151340000Y-112160000D01*
X150910000Y-112920000D02*
X151340000Y-112920000D01*
X148730000Y-110000000D02*
X148730000Y-108730000D01*
X148730000Y-108730000D02*
X150000000Y-108730000D01*
X139286000Y-116000000D02*
G75*
G03X139286000Y-116000000I-2286000J0D01*
G01*
X139286000Y-106000000D02*
G75*
G03X139286000Y-106000000I-2286000J0D01*
G01*
X149286000Y-116000000D02*
G75*
G03X149286000Y-116000000I-2286000J0D01*
G01*
X149286000Y-106000000D02*
G75*
G03X149286000Y-106000000I-2286000J0D01*
G01*
D12*
X145412381Y-112008095D02*
X144412381Y-112008095D01*
X144412381Y-111770000D01*
X144460000Y-111627142D01*
X144555238Y-111531904D01*
X144650476Y-111484285D01*
X144840952Y-111436666D01*
X144983810Y-111436666D01*
X145174286Y-111484285D01*
X145269524Y-111531904D01*
X145364762Y-111627142D01*
X145412381Y-111770000D01*
X145412381Y-112008095D01*
X145412381Y-110484285D02*
X145412381Y-111055714D01*
X145412381Y-110770000D02*
X144412381Y-110770000D01*
X144555238Y-110865238D01*
X144650476Y-110960476D01*
X144698095Y-111055714D01*
X153576905Y-108182381D02*
X153576905Y-107182381D01*
X153957858Y-107182381D01*
X154053096Y-107230000D01*
X154100715Y-107277619D01*
X154148334Y-107372857D01*
X154148334Y-107515714D01*
X154100715Y-107610952D01*
X154053096Y-107658571D01*
X153957858Y-107706190D01*
X153576905Y-107706190D01*
X155100715Y-108182381D02*
X154529286Y-108182381D01*
X154815000Y-108182381D02*
X154815000Y-107182381D01*
X154719762Y-107325238D01*
X154624524Y-107420476D01*
X154529286Y-107468095D01*
X135666667Y-113404381D02*
X135333333Y-112928190D01*
X135095238Y-113404381D02*
X135095238Y-112404381D01*
X135476191Y-112404381D01*
X135571429Y-112452000D01*
X135619048Y-112499619D01*
X135666667Y-112594857D01*
X135666667Y-112737714D01*
X135619048Y-112832952D01*
X135571429Y-112880571D01*
X135476191Y-112928190D01*
X135095238Y-112928190D01*
X136095238Y-112880571D02*
X136428572Y-112880571D01*
X136571429Y-113404381D02*
X136095238Y-113404381D01*
X136095238Y-112404381D01*
X136571429Y-112404381D01*
X137333334Y-112880571D02*
X137000000Y-112880571D01*
X137000000Y-113404381D02*
X137000000Y-112404381D01*
X137476191Y-112404381D01*
X138000000Y-112404381D02*
X138000000Y-112642476D01*
X137761905Y-112547238D02*
X138000000Y-112642476D01*
X138238096Y-112547238D01*
X137857143Y-112832952D02*
X138000000Y-112642476D01*
X138142858Y-112832952D01*
X138761905Y-112404381D02*
X138761905Y-112642476D01*
X138523810Y-112547238D02*
X138761905Y-112642476D01*
X139000001Y-112547238D01*
X138619048Y-112832952D02*
X138761905Y-112642476D01*
X138904763Y-112832952D01*
X135666667Y-103404381D02*
X135333333Y-102928190D01*
X135095238Y-103404381D02*
X135095238Y-102404381D01*
X135476191Y-102404381D01*
X135571429Y-102452000D01*
X135619048Y-102499619D01*
X135666667Y-102594857D01*
X135666667Y-102737714D01*
X135619048Y-102832952D01*
X135571429Y-102880571D01*
X135476191Y-102928190D01*
X135095238Y-102928190D01*
X136095238Y-102880571D02*
X136428572Y-102880571D01*
X136571429Y-103404381D02*
X136095238Y-103404381D01*
X136095238Y-102404381D01*
X136571429Y-102404381D01*
X137333334Y-102880571D02*
X137000000Y-102880571D01*
X137000000Y-103404381D02*
X137000000Y-102404381D01*
X137476191Y-102404381D01*
X138000000Y-102404381D02*
X138000000Y-102642476D01*
X137761905Y-102547238D02*
X138000000Y-102642476D01*
X138238096Y-102547238D01*
X137857143Y-102832952D02*
X138000000Y-102642476D01*
X138142858Y-102832952D01*
X138761905Y-102404381D02*
X138761905Y-102642476D01*
X138523810Y-102547238D02*
X138761905Y-102642476D01*
X139000001Y-102547238D01*
X138619048Y-102832952D02*
X138761905Y-102642476D01*
X138904763Y-102832952D01*
X145666667Y-113404381D02*
X145333333Y-112928190D01*
X145095238Y-113404381D02*
X145095238Y-112404381D01*
X145476191Y-112404381D01*
X145571429Y-112452000D01*
X145619048Y-112499619D01*
X145666667Y-112594857D01*
X145666667Y-112737714D01*
X145619048Y-112832952D01*
X145571429Y-112880571D01*
X145476191Y-112928190D01*
X145095238Y-112928190D01*
X146095238Y-112880571D02*
X146428572Y-112880571D01*
X146571429Y-113404381D02*
X146095238Y-113404381D01*
X146095238Y-112404381D01*
X146571429Y-112404381D01*
X147333334Y-112880571D02*
X147000000Y-112880571D01*
X147000000Y-113404381D02*
X147000000Y-112404381D01*
X147476191Y-112404381D01*
X148000000Y-112404381D02*
X148000000Y-112642476D01*
X147761905Y-112547238D02*
X148000000Y-112642476D01*
X148238096Y-112547238D01*
X147857143Y-112832952D02*
X148000000Y-112642476D01*
X148142858Y-112832952D01*
X148761905Y-112404381D02*
X148761905Y-112642476D01*
X148523810Y-112547238D02*
X148761905Y-112642476D01*
X149000001Y-112547238D01*
X148619048Y-112832952D02*
X148761905Y-112642476D01*
X148904763Y-112832952D01*
X145666667Y-103404381D02*
X145333333Y-102928190D01*
X145095238Y-103404381D02*
X145095238Y-102404381D01*
X145476191Y-102404381D01*
X145571429Y-102452000D01*
X145619048Y-102499619D01*
X145666667Y-102594857D01*
X145666667Y-102737714D01*
X145619048Y-102832952D01*
X145571429Y-102880571D01*
X145476191Y-102928190D01*
X145095238Y-102928190D01*
X146095238Y-102880571D02*
X146428572Y-102880571D01*
X146571429Y-103404381D02*
X146095238Y-103404381D01*
X146095238Y-102404381D01*
X146571429Y-102404381D01*
X147333334Y-102880571D02*
X147000000Y-102880571D01*
X147000000Y-103404381D02*
X147000000Y-102404381D01*
X147476191Y-102404381D01*
X148000000Y-102404381D02*
X148000000Y-102642476D01*
X147761905Y-102547238D02*
X148000000Y-102642476D01*
X148238096Y-102547238D01*
X147857143Y-102832952D02*
X148000000Y-102642476D01*
X148142858Y-102832952D01*
X148761905Y-102404381D02*
X148761905Y-102642476D01*
X148523810Y-102547238D02*
X148761905Y-102642476D01*
X149000001Y-102547238D01*
X148619048Y-102832952D02*
X148761905Y-102642476D01*
X148904763Y-102832952D01*
M02*
