M48
;DRILL file {KiCad 4.0.2-stable} date 6/22/2017 12:24:08 PM
;FORMAT={-:-/ absolute / inch / decimal}
FMAT,2
INCH,TZ
T1C0.024
T2C0.031
T3C0.039
T4C0.040
T5C0.043
T6C0.070
T7C0.138
%
G90
G05
M72
T1
X3.55Y-3.85
X3.55Y-4.1
X3.75Y-4.05
X3.75Y-5.
X3.8Y-3.4
X3.8Y-3.5
X3.9Y-4.5
X3.95Y-4.3
X4.Y-4.45
X4.05Y-4.35
X4.1Y-3.95
X4.1Y-4.5
X4.1Y-5.55
X4.15Y-4.95
X4.5Y-2.95
X4.6Y-3.85
X4.7Y-2.85
X4.8Y-2.85
X4.8Y-2.95
X4.8Y-3.9
X4.8Y-5.35
X5.Y-2.85
X5.Y-5.3
X5.05Y-2.65
X5.15Y-4.3
X5.3Y-4.4
X5.3Y-5.3
X5.4Y-4.5
X5.4Y-5.
X5.5Y-4.45
X5.5Y-4.75
X5.65Y-1.7
X5.65Y-1.95
X5.65Y-2.65
X5.9Y-3.35
X6.Y-3.55
X6.Y-4.3
X6.Y-5.65
X6.05Y-2.75
X6.8Y-2.1
X6.8Y-2.5
X6.85Y-5.15
X6.85Y-5.35
X6.9Y-3.3
X6.9Y-3.5
X7.Y-2.3
X7.Y-5.05
X7.Y-5.3
X7.3Y-4.05
T2
X4.05Y-2.35
X4.05Y-3.1531
X4.05Y-3.35
X4.2Y-2.6
X4.2Y-2.9
X4.2Y-3.1
X4.2Y-3.4
X4.2Y-3.55
X4.25Y-4.1
X4.35Y-2.35
X4.5Y-3.55
X4.55Y-4.1
X4.6Y-2.35
X4.6Y-2.65
X4.6Y-2.75
X4.6Y-2.85
X4.6Y-2.95
X4.6Y-3.05
X4.6Y-3.15
X4.6Y-3.25
X4.65Y-3.6
X4.65Y-3.9
X4.8Y-4.3
X4.9Y-2.35
X4.9Y-2.65
X4.9Y-2.75
X4.9Y-2.85
X4.9Y-2.95
X4.9Y-3.05
X4.9Y-3.15
X4.9Y-3.25
X4.9Y-3.6
X4.9Y-3.9
X4.9Y-4.3
X5.Y-4.3
X5.05Y-2.45
X5.05Y-2.75
X5.05Y-3.15
X5.05Y-3.45
X5.8Y-2.4
X5.8Y-2.55
X5.8Y-2.85
X5.8Y-3.05
X5.8Y-3.35
X5.85Y-2.25
X6.Y-3.05
X6.Y-3.35
X6.0469Y-2.25
X6.1Y-2.4
X6.15Y-2.55
X6.15Y-2.65
X6.15Y-2.75
X6.15Y-2.85
X6.15Y-2.95
X6.15Y-3.05
X6.15Y-3.15
X6.15Y-3.35
X6.45Y-2.55
X6.45Y-2.65
X6.45Y-2.75
X6.45Y-2.85
X6.45Y-2.95
X6.45Y-3.05
X6.45Y-3.15
X6.45Y-3.35
T3
X3.25Y-3.6
X3.25Y-3.7
X3.25Y-3.8
X3.25Y-3.9
X4.1Y-3.75
X4.1Y-3.85
X4.2Y-3.75
X4.2Y-3.85
X4.3Y-3.75
X4.3Y-3.85
X4.75Y-1.95
X4.75Y-2.05
X4.75Y-2.15
X4.75Y-4.1
X4.85Y-4.1
X5.8Y-1.8
X5.9969Y-1.8
X6.6Y-3.5
X6.6Y-3.6
X6.7Y-3.5
X6.7Y-3.6
X6.8Y-3.5
X6.8Y-3.6
X7.1Y-2.3
X7.1Y-2.4
X7.1Y-2.5
X7.65Y-3.6
X7.65Y-3.7
X7.65Y-3.8
X7.65Y-3.9
T4
X3.4Y-3.4
X3.4Y-3.5
X3.4Y-3.6
X3.4Y-3.7
X3.4Y-3.8
X3.4Y-3.9
X3.4Y-4.
X3.4Y-4.1
X3.9Y-3.4
X3.9Y-3.5
X3.9Y-3.6
X3.9Y-3.7
X3.9Y-3.8
X3.9Y-3.9
X3.9Y-4.
X3.9Y-4.1
X4.Y-4.6
X4.Y-4.7
X4.Y-4.8
X4.Y-4.9
X4.Y-5.
X4.Y-5.1
X4.Y-5.2
X4.1Y-4.6
X4.1Y-5.2
X4.2Y-4.6
X4.2Y-5.2
X4.3Y-4.6
X4.3Y-5.2
X4.4Y-4.6
X4.4Y-5.2
X4.5Y-4.6
X4.5Y-5.2
X4.6Y-4.6
X4.6Y-5.2
X4.7Y-4.6
X4.7Y-5.2
X4.8Y-4.6
X4.8Y-5.1
X4.8Y-5.2
X4.9Y-4.6
X4.9Y-5.1
X4.9Y-5.2
X5.Y-4.6
X5.Y-5.1
X5.Y-5.2
X5.1Y-4.6
X5.1Y-5.2
X5.2Y-4.6
X5.2Y-5.1
X5.2Y-5.2
X5.3Y-4.6
X5.3Y-5.2
X5.7Y-4.55
X5.7Y-4.65
X5.7Y-4.75
X5.7Y-4.85
X5.7Y-4.95
X5.7Y-5.05
X5.7Y-5.15
X5.7Y-5.25
X6.7Y-4.55
X6.7Y-4.65
X6.7Y-4.75
X6.7Y-4.85
X6.7Y-4.95
X6.7Y-5.05
X6.7Y-5.15
X6.7Y-5.25
X7.Y-3.4
X7.Y-3.5
X7.Y-3.6
X7.Y-3.7
X7.Y-3.8
X7.Y-3.9
X7.Y-4.
X7.Y-4.1
X7.5Y-3.4
X7.5Y-3.5
X7.5Y-3.6
X7.5Y-3.7
X7.5Y-3.8
X7.5Y-3.9
X7.5Y-4.
X7.5Y-4.1
T5
X5.4Y-1.6
X5.5Y-1.6
T6
X5.45Y-2.9823
X5.45Y-4.1102
T7
X4.45Y-2.05
X4.45Y-5.6
X6.45Y-2.05
X6.45Y-5.6
T0
M30
