G04 #@! TF.FileFunction,Copper,L1,Top,Signal*
%FSLAX46Y46*%
G04 Gerber Fmt 4.6, Leading zero omitted, Abs format (unit mm)*
G04 Created by KiCad (PCBNEW 4.0.2-stable) date 6/22/2017 12:23:36 PM*
%MOMM*%
G01*
G04 APERTURE LIST*
%ADD10C,0.100000*%
%ADD11C,4.000000*%
%ADD12C,3.000000*%
%ADD13C,1.600000*%
%ADD14R,2.000000X2.000000*%
%ADD15C,2.000000*%
%ADD16R,1.700000X1.700000*%
%ADD17O,1.700000X1.700000*%
%ADD18O,1.998980X1.998980*%
%ADD19R,1.998980X1.998980*%
%ADD20C,1.520000*%
%ADD21R,1.520000X1.520000*%
%ADD22O,1.600000X1.600000*%
%ADD23C,1.900000*%
%ADD24R,1.600000X1.600000*%
%ADD25R,1.900000X1.900000*%
%ADD26C,1.000000*%
%ADD27C,0.250000*%
G04 APERTURE END LIST*
D10*
D11*
X163830000Y-52070000D03*
X113030000Y-52070000D03*
X113030000Y-142240000D03*
D12*
X138430000Y-75750000D03*
X138430000Y-104400000D03*
D13*
X102870000Y-85090000D03*
X102870000Y-80090000D03*
X148590000Y-57150000D03*
X153590000Y-57150000D03*
D14*
X147320000Y-45720000D03*
D15*
X152320000Y-45720000D03*
D16*
X120650000Y-49530000D03*
D17*
X120650000Y-52070000D03*
X120650000Y-54610000D03*
D16*
X180340000Y-63500000D03*
D17*
X180340000Y-60960000D03*
X180340000Y-58420000D03*
D18*
X139700000Y-40640000D03*
D19*
X137160000Y-40640000D03*
D16*
X120650000Y-104140000D03*
D17*
X123190000Y-104140000D03*
D16*
X82550000Y-99060000D03*
D17*
X82550000Y-96520000D03*
X82550000Y-93980000D03*
X82550000Y-91440000D03*
D16*
X194310000Y-91440000D03*
D17*
X194310000Y-93980000D03*
X194310000Y-96520000D03*
X194310000Y-99060000D03*
D20*
X124460000Y-109220000D03*
X121920000Y-109220000D03*
D21*
X127000000Y-109220000D03*
D13*
X106680000Y-73660000D03*
D22*
X106680000Y-66040000D03*
D13*
X106680000Y-86360000D03*
D22*
X106680000Y-78740000D03*
D13*
X114300000Y-90170000D03*
D22*
X106680000Y-90170000D03*
D13*
X128270000Y-87630000D03*
D22*
X128270000Y-80010000D03*
D13*
X152400000Y-77470000D03*
D22*
X152400000Y-85090000D03*
D13*
X147320000Y-60960000D03*
D22*
X154940000Y-60960000D03*
D13*
X147320000Y-72390000D03*
D22*
X147320000Y-64770000D03*
D13*
X147320000Y-85090000D03*
D22*
X147320000Y-77470000D03*
D13*
X107950000Y-104140000D03*
D22*
X115570000Y-104140000D03*
D13*
X124460000Y-59690000D03*
D22*
X116840000Y-59690000D03*
D13*
X156210000Y-85090000D03*
D22*
X163830000Y-85090000D03*
D13*
X118110000Y-99060000D03*
D22*
X118110000Y-91440000D03*
D13*
X124460000Y-91440000D03*
D22*
X124460000Y-99060000D03*
D13*
X102870000Y-59690000D03*
D22*
X110490000Y-59690000D03*
D13*
X128270000Y-62230000D03*
D22*
X128270000Y-69850000D03*
D23*
X121920000Y-129540000D03*
X124460000Y-129540000D03*
X127000000Y-129540000D03*
X132080000Y-129540000D03*
X101600000Y-119380000D03*
X101600000Y-121920000D03*
X101600000Y-124460000D03*
X101600000Y-127000000D03*
X101600000Y-129540000D03*
X132080000Y-116840000D03*
X129540000Y-116840000D03*
X127000000Y-116840000D03*
X124460000Y-116840000D03*
X121920000Y-116840000D03*
X119380000Y-116840000D03*
X116840000Y-116840000D03*
X114300000Y-116840000D03*
X111760000Y-116840000D03*
X109220000Y-116840000D03*
X106680000Y-116840000D03*
X104140000Y-116840000D03*
X101600000Y-116840000D03*
X101600000Y-132080000D03*
X104140000Y-132080000D03*
X106680000Y-132080000D03*
X109220000Y-132080000D03*
X111760000Y-132080000D03*
X114300000Y-132080000D03*
X116840000Y-132080000D03*
X119380000Y-132080000D03*
X121920000Y-132080000D03*
X124460000Y-132080000D03*
X127000000Y-132080000D03*
X129540000Y-132080000D03*
X132080000Y-132080000D03*
X134620000Y-132080000D03*
X134620000Y-116840000D03*
D24*
X116840000Y-67310000D03*
D22*
X124460000Y-82550000D03*
X116840000Y-69850000D03*
X124460000Y-80010000D03*
X116840000Y-72390000D03*
X124460000Y-77470000D03*
X116840000Y-74930000D03*
X124460000Y-74930000D03*
X116840000Y-77470000D03*
X124460000Y-72390000D03*
X116840000Y-80010000D03*
X124460000Y-69850000D03*
X116840000Y-82550000D03*
X124460000Y-67310000D03*
D24*
X156210000Y-64770000D03*
D22*
X163830000Y-80010000D03*
X156210000Y-67310000D03*
X163830000Y-77470000D03*
X156210000Y-69850000D03*
X163830000Y-74930000D03*
X156210000Y-72390000D03*
X163830000Y-72390000D03*
X156210000Y-74930000D03*
X163830000Y-69850000D03*
X156210000Y-77470000D03*
X163830000Y-67310000D03*
X156210000Y-80010000D03*
X163830000Y-64770000D03*
D16*
X104140000Y-97790000D03*
D17*
X104140000Y-95250000D03*
X106680000Y-97790000D03*
X106680000Y-95250000D03*
X109220000Y-97790000D03*
X109220000Y-95250000D03*
D16*
X172720000Y-88900000D03*
D17*
X172720000Y-91440000D03*
X170180000Y-88900000D03*
X170180000Y-91440000D03*
X167640000Y-88900000D03*
X167640000Y-91440000D03*
D11*
X163830000Y-142240000D03*
D23*
X177800000Y-86360000D03*
X177800000Y-88900000D03*
X177800000Y-91440000D03*
X177800000Y-93980000D03*
X177800000Y-96520000D03*
X177800000Y-99060000D03*
X177800000Y-101600000D03*
X177800000Y-104140000D03*
D25*
X190500000Y-104140000D03*
D23*
X190500000Y-101600000D03*
X190500000Y-99060000D03*
X190500000Y-96520000D03*
X190500000Y-93980000D03*
X190500000Y-91440000D03*
X190500000Y-88900000D03*
X190500000Y-86360000D03*
X99060000Y-104140000D03*
X99060000Y-101600000D03*
X99060000Y-99060000D03*
X99060000Y-96520000D03*
X99060000Y-93980000D03*
X99060000Y-91440000D03*
X99060000Y-88900000D03*
X99060000Y-86360000D03*
D25*
X86360000Y-86360000D03*
D23*
X86360000Y-88900000D03*
X86360000Y-91440000D03*
X86360000Y-93980000D03*
X86360000Y-96520000D03*
X86360000Y-99060000D03*
X86360000Y-101600000D03*
X86360000Y-104140000D03*
X144780000Y-115570000D03*
X144780000Y-118110000D03*
X144780000Y-120650000D03*
X144780000Y-123190000D03*
X144780000Y-125730000D03*
X144780000Y-128270000D03*
X144780000Y-130810000D03*
X144780000Y-133350000D03*
D25*
X170180000Y-133350000D03*
D23*
X170180000Y-130810000D03*
X170180000Y-128270000D03*
X170180000Y-125730000D03*
X170180000Y-123190000D03*
X170180000Y-120650000D03*
X170180000Y-118110000D03*
X170180000Y-115570000D03*
D13*
X90170000Y-97790000D03*
X134620000Y-134620000D03*
X104140000Y-140970000D03*
X90170000Y-104140000D03*
X143510000Y-43180000D03*
X143510000Y-49530000D03*
X172720000Y-63500000D03*
X172720000Y-53340000D03*
X121920000Y-99060000D03*
X121920000Y-74930000D03*
X134620000Y-111760000D03*
X104140000Y-100330000D03*
X102870000Y-110490000D03*
X185420000Y-102870000D03*
X175260000Y-83820000D03*
X175260000Y-88900000D03*
X177800000Y-58420000D03*
X130810000Y-109220000D03*
X95250000Y-127000000D03*
X95250000Y-102870000D03*
X149860000Y-85090000D03*
X152400000Y-90170000D03*
X152400000Y-109220000D03*
X152400000Y-143510000D03*
X143510000Y-67310000D03*
X128270000Y-67310000D03*
X100330000Y-109220000D03*
X99060000Y-114300000D03*
X116840000Y-97790000D03*
X114300000Y-74930000D03*
X121920000Y-72390000D03*
X119380000Y-72390000D03*
X127000000Y-72390000D03*
X153670000Y-69850000D03*
X137160000Y-127000000D03*
X104140000Y-114300000D03*
X137160000Y-114300000D03*
X101600000Y-113030000D03*
X139700000Y-113030000D03*
X105410000Y-125730000D03*
X139700000Y-120650000D03*
X177800000Y-128270000D03*
X177800000Y-134620000D03*
X96520000Y-86360000D03*
X121920000Y-135890000D03*
X173990000Y-135890000D03*
X173990000Y-130810000D03*
X96520000Y-88900000D03*
X127000000Y-134620000D03*
D26*
X90170000Y-97790000D02*
X90170000Y-104140000D01*
X128270000Y-140970000D02*
X134620000Y-134620000D01*
X123190000Y-140970000D02*
X128270000Y-140970000D01*
X120650000Y-138430000D02*
X123190000Y-140970000D01*
X106680000Y-138430000D02*
X120650000Y-138430000D01*
X104140000Y-140970000D02*
X106680000Y-138430000D01*
D27*
X143510000Y-49530000D02*
X143510000Y-43180000D01*
D26*
X172720000Y-53340000D02*
X172720000Y-63500000D01*
D27*
X121920000Y-74930000D02*
X121920000Y-99060000D01*
X115570000Y-109220000D02*
X118110000Y-111760000D01*
X105410000Y-109220000D02*
X115570000Y-109220000D01*
X104140000Y-107950000D02*
X105410000Y-109220000D01*
X104140000Y-100330000D02*
X104140000Y-107950000D01*
D26*
X102870000Y-110490000D02*
X118110000Y-111760000D01*
X118110000Y-111760000D02*
X134620000Y-111760000D01*
X134620000Y-111760000D02*
X137160000Y-111760000D01*
X137160000Y-111760000D02*
X142240000Y-106680000D01*
X142240000Y-106680000D02*
X181610000Y-106680000D01*
X181610000Y-106680000D02*
X185420000Y-102870000D01*
D27*
X175260000Y-88900000D02*
X175260000Y-83820000D01*
X177800000Y-73660000D02*
X177800000Y-58420000D01*
X161290000Y-90170000D02*
X177800000Y-73660000D01*
X156210000Y-90170000D02*
X161290000Y-90170000D01*
X137160000Y-109220000D02*
X156210000Y-90170000D01*
X132080000Y-109220000D02*
X137160000Y-109220000D01*
X130810000Y-109220000D02*
X132080000Y-109220000D01*
X95250000Y-102870000D02*
X95250000Y-127000000D01*
X149860000Y-87630000D02*
X149860000Y-85090000D01*
X152400000Y-90170000D02*
X149860000Y-87630000D01*
X152400000Y-143510000D02*
X152400000Y-109220000D01*
X128270000Y-67310000D02*
X143510000Y-67310000D01*
X99060000Y-110490000D02*
X100330000Y-109220000D01*
X99060000Y-114300000D02*
X99060000Y-110490000D01*
X116840000Y-86360000D02*
X116840000Y-97790000D01*
X114300000Y-86360000D02*
X116840000Y-86360000D01*
X114300000Y-74930000D02*
X114300000Y-86360000D01*
X119380000Y-72390000D02*
X121920000Y-72390000D01*
X129540000Y-72390000D02*
X127000000Y-72390000D01*
X132080000Y-69850000D02*
X129540000Y-72390000D01*
X153670000Y-69850000D02*
X132080000Y-69850000D01*
X140970000Y-123190000D02*
X144780000Y-123190000D01*
X137160000Y-127000000D02*
X140970000Y-123190000D01*
X137160000Y-114300000D02*
X104140000Y-114300000D01*
X139700000Y-113030000D02*
X101600000Y-113030000D01*
X134620000Y-125730000D02*
X105410000Y-125730000D01*
X139700000Y-120650000D02*
X134620000Y-125730000D01*
X177800000Y-134620000D02*
X177800000Y-128270000D01*
X107950000Y-135890000D02*
X121920000Y-135890000D01*
X96520000Y-86360000D02*
X92710000Y-86360000D01*
X92710000Y-86360000D02*
X92710000Y-129540000D01*
X92710000Y-129540000D02*
X100330000Y-135890000D01*
X100330000Y-135890000D02*
X107950000Y-135890000D01*
X173990000Y-130810000D02*
X173990000Y-135890000D01*
X93980000Y-128270000D02*
X100330000Y-134620000D01*
X96520000Y-88900000D02*
X93980000Y-88900000D01*
X93980000Y-88900000D02*
X93980000Y-128270000D01*
X100330000Y-134620000D02*
X127000000Y-134620000D01*
M02*
